<?xml version="1.0" standalone="no"?>
<!DOCTYPE svg PUBLIC "-//W3C//DTD SVG 20010904//EN"
 "http://www.w3.org/TR/2001/REC-SVG-20010904/DTD/svg10.dtd">
<svg version="1.0" xmlns="http://www.w3.org/2000/svg"
 width="800.000000pt" height="800.000000pt" viewBox="0 0 800.000000 800.000000"
 preserveAspectRatio="xMidYMid meet">
<metadata>
Created by potrace 1.14, written by Peter Selinger 2001-2017
</metadata>
<g transform="translate(0.000000,800.000000) scale(0.100000,-0.100000)"
fill="#000000" stroke="none">
<path d="M3755 7923 c-812 -49 -1573 -344 -2215 -857 -154 -124 -446 -413
-566 -561 -438 -542 -722 -1166 -828 -1821 -37 -230 -45 -315 -52 -544 -32
-1051 360 -2066 1091 -2819 454 -468 983 -799 1597 -1000 239 -78 394 -114
648 -150 1085 -155 2149 136 3010 823 150 120 444 410 562 556 434 535 719
1153 828 1801 47 282 54 374 54 679 0 299 -8 402 -50 655 -93 557 -308 1087
-633 1560 -247 360 -621 736 -981 987 -205 142 -487 298 -725 398 -148 63
-461 164 -615 199 -362 81 -775 116 -1125 94z m110 -933 c-5 -8 -11 -8 -17 -2
-6 6 -7 16 -3 22 5 8 11 8 17 2 6 -6 7 -16 3 -22z m-1835 10 c0 -5 -4 -10 -10
-10 -5 0 -10 5 -10 10 0 6 5 10 10 10 6 0 10 -4 10 -10z m-497 -64 c8 -8 27
-16 42 -18 22 -2 35 -14 55 -48 14 -25 35 -47 46 -49 10 -2 28 -14 39 -27 11
-13 28 -24 37 -24 20 0 35 -18 43 -52 4 -15 15 -34 26 -44 10 -9 19 -27 19
-38 0 -12 9 -27 20 -34 11 -7 20 -18 20 -25 0 -11 11 -26 75 -100 13 -15 22
-34 19 -41 -3 -7 2 -16 11 -20 9 -3 13 -10 10 -16 -3 -5 -1 -10 5 -10 19 0 53
-38 47 -54 -3 -8 3 -22 14 -32 18 -16 19 -16 20 2 0 15 2 14 10 -6 6 -14 17
-28 25 -33 19 -11 18 -27 -3 -27 -14 0 -15 -2 -4 -12 6 -7 28 -13 48 -13 34 0
43 -7 57 -45 6 -14 11 -24 36 -67 6 -10 17 -31 26 -48 8 -16 23 -43 34 -60 23
-38 27 -127 5 -149 -8 -8 -15 -18 -15 -22 0 -13 -80 -84 -95 -84 -24 0 -45
-12 -45 -26 0 -8 -4 -14 -9 -14 -6 0 -13 -21 -17 -47 -7 -52 -31 -96 -45 -87
-5 3 -9 0 -9 -5 0 -6 -6 -11 -14 -11 -8 0 -16 -7 -20 -15 -3 -8 -1 -15 4 -15
6 0 10 -7 10 -15 0 -7 6 -18 13 -22 21 -12 29 -43 12 -43 -8 0 -12 -6 -9 -15
3 -8 -6 -38 -20 -68 -19 -41 -30 -53 -45 -52 -11 1 -24 4 -27 8 -12 11 -31 8
-37 -6 -2 -7 -1 -33 2 -58 4 -26 4 -57 -1 -69 -5 -14 -5 -27 2 -34 16 -16 12
-41 -9 -60 -21 -19 -51 -12 -51 12 0 15 -1 15 -16 1 -8 -9 -17 -24 -18 -34 -3
-21 22 -55 40 -55 16 0 28 -34 15 -38 -6 -2 -11 -24 -11 -48 0 -32 -4 -44 -15
-44 -8 0 -15 -5 -15 -11 0 -6 -6 -9 -14 -6 -8 3 -22 -1 -33 -8 -16 -12 -21
-10 -45 13 -25 23 -29 24 -28 7 1 -3 -15 -35 -35 -72 -20 -36 -37 -78 -39 -92
-2 -14 -7 -33 -11 -42 -3 -10 -2 -20 4 -24 8 -4 8 -12 1 -26 -9 -16 -7 -21 15
-31 23 -11 25 -16 23 -72 -3 -56 -1 -60 21 -66 14 -3 26 -10 28 -16 3 -10 -38
-34 -59 -34 -19 0 -48 -32 -48 -52 0 -10 7 -18 15 -18 10 0 3 -11 -19 -30 -19
-17 -37 -44 -41 -60 -3 -16 -21 -44 -38 -62 -32 -33 -129 -98 -148 -98 -5 0
-9 -4 -9 -8 0 -27 -121 -105 -128 -83 -2 6 -17 11 -33 11 -16 0 -29 3 -29 8 0
11 -58 34 -70 27 -5 -3 -10 -13 -10 -21 0 -8 -4 -14 -10 -14 -5 0 -9 -11 -8
-24 2 -22 -5 -43 -33 -98 -4 -9 -11 -47 -15 -85 -5 -48 -16 -82 -37 -118 -16
-27 -37 -72 -47 -100 -21 -62 -57 -92 -90 -75 -20 11 -25 10 -35 -4 -7 -10
-19 -14 -29 -10 -16 6 -22 -12 -17 -63 1 -12 -3 -24 -9 -28 -6 -3 -7 -11 -4
-17 16 -25 10 -133 -6 -123 -19 12 -48 -68 -32 -92 4 -6 23 -13 42 -15 40 -3
37 5 43 -145 3 -85 5 -94 29 -115 15 -13 32 -43 38 -68 7 -25 19 -57 28 -72
14 -23 14 -31 2 -53 -14 -27 -5 -49 10 -25 8 12 10 10 10 -7 0 -14 6 -23 15
-23 8 0 15 7 15 15 0 42 72 17 90 -31 5 -13 14 -24 20 -24 5 0 10 -9 10 -20 0
-11 6 -20 13 -20 15 0 37 -46 37 -77 0 -35 -86 -116 -118 -110 -15 3 -30 -3
-42 -15 -13 -15 -26 -19 -43 -14 -32 8 -41 -5 -56 -76 -7 -32 -17 -60 -22 -63
-14 -9 -11 -103 4 -108 9 -3 9 -7 -1 -19 -10 -13 -10 -17 0 -21 7 -2 0 -4 -16
-4 -40 -1 -76 -45 -76 -94 0 -29 4 -38 21 -42 16 -4 20 -10 14 -24 -5 -10 -9
-28 -10 -40 -1 -13 -5 -26 -10 -30 -4 -5 -5 -2 -1 4 4 7 2 13 -4 13 -6 0 -15
10 -20 23 -13 29 -30 56 -53 81 -28 32 -49 75 -41 88 4 6 3 8 -3 5 -15 -10
-33 16 -101 141 -314 575 -466 1178 -465 1847 1 340 36 636 113 937 190 749
597 1413 1189 1941 56 49 80 57 104 33z m3534 -76 c10 -11 25 -20 35 -20 10 0
18 -5 18 -11 0 -5 5 -7 10 -4 6 3 10 17 10 31 0 13 5 24 11 24 18 0 48 -44 43
-62 -3 -10 -1 -18 5 -18 6 0 11 6 11 14 0 24 26 39 49 26 19 -9 21 -8 21 15 0
15 6 25 15 25 9 0 12 -6 8 -16 -8 -20 13 -34 53 -34 17 0 40 -8 52 -18 12 -10
40 -27 64 -37 24 -11 45 -22 48 -25 3 -4 14 -10 25 -15 19 -8 19 -9 -2 -12
-45 -8 -24 -30 34 -36 31 -3 59 -11 63 -17 4 -7 20 -11 36 -10 47 3 52 1 63
-30 7 -20 21 -34 41 -41 31 -11 39 -24 18 -31 -8 -3 -3 -14 15 -30 15 -14 27
-28 27 -31 0 -12 71 -77 85 -77 8 0 15 -4 15 -10 0 -5 16 -10 35 -10 33 0 35
-2 36 -32 1 -56 12 -70 70 -89 30 -10 61 -19 70 -19 9 0 24 -9 34 -20 15 -17
16 -24 7 -46 -18 -38 -14 -74 11 -111 12 -18 25 -33 30 -33 4 0 7 -11 7 -25 0
-14 5 -25 10 -25 6 0 10 -8 10 -19 0 -10 11 -26 24 -35 13 -8 27 -29 31 -45 3
-17 31 -55 64 -88 31 -32 55 -65 53 -72 -3 -9 0 -11 7 -7 9 6 10 0 5 -21 -9
-35 -14 -42 -15 -17 0 11 -5 5 -13 -16 -11 -30 -10 -37 3 -47 12 -11 13 -13 0
-13 -10 -1 -10 -3 3 -11 13 -7 16 -17 11 -39 -3 -17 1 -46 11 -70 9 -22 16
-59 16 -83 0 -23 5 -60 10 -82 6 -28 6 -42 -3 -48 -9 -5 -8 -7 3 -6 38 4 44 0
27 -19 -21 -23 -22 -39 -2 -22 8 7 24 10 36 7 17 -5 18 -3 7 11 -11 13 -11 15
4 9 10 -3 40 1 68 9 38 11 53 22 60 40 6 14 10 27 10 28 0 2 -29 1 -64 -1 -35
-3 -66 -1 -69 4 -9 15 151 9 165 -6 7 -8 8 -11 2 -8 -7 4 -17 0 -24 -8 -16
-19 0 -19 27 0 21 15 22 14 32 -22 5 -21 13 -69 16 -108 4 -38 13 -83 21 -100
7 -16 12 -58 12 -92 -1 -61 -2 -63 -40 -89 -34 -24 -38 -31 -38 -70 0 -23 -4
-44 -9 -46 -9 -3 -14 -52 -12 -110 1 -14 12 -40 26 -57 l26 -30 -46 -56 c-25
-31 -45 -63 -45 -73 -1 -28 -25 -52 -54 -52 -14 0 -26 -4 -26 -10 0 -5 -11
-10 -25 -10 -15 0 -25 -6 -25 -15 0 -8 -12 -18 -27 -21 -23 -6 -24 -8 -10 -19
10 -7 17 -15 17 -19 0 -11 -28 -6 -34 7 -5 10 -7 10 -12 0 -3 -7 -15 -13 -25
-13 -11 0 -18 -4 -15 -8 3 -5 -18 -14 -47 -21 -29 -8 -61 -21 -72 -31 -11 -9
-28 -20 -38 -23 -9 -4 -20 -15 -23 -24 -12 -37 -48 -113 -54 -113 -12 0 -28
-66 -25 -110 4 -67 -5 -108 -23 -113 -10 -2 -25 -28 -36 -60 -11 -32 -23 -57
-27 -57 -4 0 -10 -11 -13 -25 -4 -16 -13 -25 -25 -25 -33 0 -49 -27 -56 -92
-4 -35 -12 -69 -18 -77 -7 -7 -12 -20 -12 -27 0 -7 -14 -28 -30 -46 -30 -33
-60 -86 -57 -100 1 -5 -4 -8 -12 -8 -23 0 -56 -50 -56 -84 0 -36 -11 -56 -31
-59 -8 -2 -29 -11 -47 -22 -28 -17 -32 -24 -26 -48 l6 -29 -49 3 c-27 1 -53 0
-59 -3 -5 -3 -20 -4 -34 -1 -76 11 -110 11 -117 -2 -13 -22 -77 -29 -96 -11
-8 9 -21 16 -27 16 -16 0 -40 -26 -40 -43 0 -8 -13 -17 -31 -21 -17 -3 -28
-10 -25 -15 4 -5 -1 -16 -9 -24 -8 -9 -15 -20 -15 -26 0 -6 -6 -8 -13 -5 -18
7 -91 -71 -84 -90 5 -11 0 -16 -13 -16 -11 0 -20 -3 -20 -8 0 -4 -17 -26 -37
-49 -59 -65 -73 -82 -73 -93 0 -6 -4 -10 -8 -10 -5 0 -20 -36 -33 -80 -13 -44
-27 -80 -31 -80 -4 0 -8 -12 -8 -28 0 -15 -10 -38 -23 -52 -12 -14 -30 -37
-40 -52 -10 -16 -26 -28 -36 -28 -21 0 -61 -59 -61 -90 0 -10 -7 -23 -16 -28
-8 -5 -21 -26 -29 -48 -8 -21 -14 -35 -15 -30 0 12 -50 -61 -61 -90 -5 -15 -4
-26 2 -30 6 -3 3 -11 -8 -19 -13 -10 -15 -16 -6 -26 6 -8 13 -37 15 -66 4 -42
2 -53 -11 -57 -9 -3 -2 -4 14 -3 30 3 30 2 31 -49 l0 -51 -104 126 c-57 69
-111 135 -120 146 -81 95 -263 318 -287 350 -16 22 -32 42 -35 45 -35 31 -161
226 -238 371 -119 222 -181 457 -186 699 -3 152 14 365 32 395 9 16 11 17 12
4 0 -19 18 -19 83 1 32 10 46 19 42 28 -2 7 -1 10 4 7 5 -3 12 -1 16 5 3 6 -4
10 -17 10 -21 1 -22 2 -5 14 13 10 15 21 11 45 -4 17 -7 31 -8 31 -1 0 -16 -4
-35 -10 -26 -7 -37 -6 -48 5 -13 13 -12 22 1 69 18 61 30 74 51 56 12 -10 15
-9 16 6 1 14 2 15 6 3 5 -19 62 -14 70 7 3 8 12 14 19 14 11 0 14 13 11 63 -3
34 -1 67 4 73 5 6 11 35 15 65 5 44 3 59 -10 71 -17 18 -21 38 -7 38 16 0 23
100 8 124 -17 27 -47 114 -47 138 0 10 10 39 22 64 19 40 19 48 7 58 -8 6 -28
37 -43 69 -16 31 -33 57 -38 57 -16 0 -8 19 21 51 19 20 35 30 45 26 9 -4 16
-3 16 2 0 5 11 12 25 15 16 4 25 13 25 26 0 10 7 23 15 27 9 6 15 26 16 56 2
41 4 45 18 34 14 -10 14 -10 4 4 -7 9 -9 20 -5 24 4 5 1 5 -5 1 -16 -9 -18 20
-3 29 6 4 8 11 4 16 -3 5 -10 6 -16 3 -7 -4 -8 -2 -4 5 4 6 2 18 -4 26 -7 8
-9 15 -4 15 5 0 19 -18 32 -40 88 -155 327 -139 408 28 20 41 30 157 20 226
-4 24 -21 65 -38 92 -18 27 -31 53 -30 57 1 5 -2 6 -8 2 -10 -6 -54 18 -46 26
4 4 -24 7 -83 10 -18 1 -21 3 -10 10 8 5 24 9 35 9 12 0 27 7 34 15 7 8 16 12
21 9 5 -3 9 -1 9 5 0 32 104 14 113 -19 5 -20 63 -32 89 -19 9 5 25 9 35 9 24
0 105 69 96 83 -4 7 0 8 11 4 10 -4 24 -1 32 8 13 13 13 21 3 52 -7 21 -17 43
-22 50 -5 7 -8 29 -7 50 4 66 2 73 -25 73 -19 0 -25 5 -25 23 0 13 -5 28 -12
35 -9 9 -8 15 6 25 13 10 17 23 14 44 -2 18 0 30 7 30 6 0 11 -13 10 -29 -1
-15 2 -28 7 -28 5 0 6 -4 3 -10 -3 -5 -1 -10 5 -10 6 0 11 -10 10 -22 -5 -52
-1 -59 27 -56 14 2 34 14 45 28 18 25 18 26 -2 68 -12 23 -25 40 -30 37 -6 -4
-10 1 -10 9 0 9 -4 16 -10 16 -20 0 -9 45 16 69 14 13 32 37 40 52 13 25 17
27 38 17 42 -18 92 -2 115 38 12 19 21 47 21 62 0 15 7 40 15 56 8 15 15 53
15 82 0 46 -3 54 -19 54 -12 0 -23 -11 -30 -30 -5 -16 -15 -30 -20 -30 -6 0
-11 -5 -11 -11 0 -22 -33 -79 -45 -79 -7 0 -16 8 -19 17 -9 22 45 128 64 128
23 0 48 27 56 60 14 56 33 75 75 75 27 0 45 -6 56 -20z m-949 -27 c-2 -17 -9
-28 -18 -28 -9 0 -16 11 -18 28 -3 22 1 27 18 27 17 0 21 -5 18 -27z m-1868
-129 c0 -8 -4 -12 -10 -9 -5 3 -10 10 -10 16 0 5 5 9 10 9 6 0 10 -7 10 -16z
m618 -15 c3 -26 -19 -46 -39 -33 -11 6 -12 48 -2 58 15 14 38 0 41 -25z m637
-159 c0 -7 -6 -15 -12 -17 -8 -3 -13 4 -13 17 0 13 5 20 13 18 6 -3 12 -11 12
-18z m1125 -64 c0 -8 3 -21 6 -30 4 -12 0 -16 -15 -16 -26 0 -38 25 -21 45 16
19 30 19 30 1z m-280 -327 c0 -14 -5 -19 -17 -17 -26 5 -29 38 -4 38 15 0 21
-6 21 -21z m-1745 -62 c0 -26 -20 -25 -23 2 -3 16 1 22 10 19 7 -3 13 -12 13
-21z m-192 -11 c6 -15 -1 -26 -15 -26 -4 0 -8 9 -8 20 0 23 15 27 23 6z m1757
-242 c0 -8 -19 -13 -24 -6 -3 5 1 9 9 9 8 0 15 -2 15 -3z m-81 -37 c-2 -1 -13
-9 -24 -17 -19 -14 -19 -14 -6 3 7 9 18 17 24 17 6 0 8 -1 6 -3z m97 -42 c-11
-8 -24 -15 -29 -15 -4 0 -6 -4 -3 -9 4 -5 -1 -8 -9 -7 -23 3 -23 19 -1 22 10
1 23 7 29 13 6 6 16 11 22 11 5 0 1 -7 -9 -15z m112 -5 c81 -49 109 -214 55
-320 -63 -122 -205 -122 -273 0 -35 62 -36 184 -2 248 24 46 36 51 51 25 8
-13 10 -14 11 -4 0 11 4 9 14 -5 14 -18 15 -18 22 -1 3 10 4 21 0 24 -8 9 26
32 49 33 l20 1 -20 9 c-17 7 -16 9 10 9 17 1 45 -8 63 -19z m-258 -4 c0 -2 -8
-10 -17 -17 -16 -13 -17 -12 -4 4 13 16 21 21 21 13z m-1642 -82 c4 -49 -19
-65 -49 -38 -35 32 -17 88 26 82 16 -2 21 -12 23 -44z m1594 4 c-7 -7 -12 -8
-12 -2 0 14 12 26 19 19 2 -3 -1 -11 -7 -17z m-14 -49 c-1 -17 -4 -25 -8 -18
-7 10 -2 49 5 49 2 0 3 -14 3 -31z m2482 11 c0 -5 -5 -10 -11 -10 -5 0 -7 5
-4 10 3 6 8 10 11 10 2 0 4 -4 4 -10z m-3723 -142 c-3 -8 -6 -5 -6 6 -1 11 2
17 5 13 3 -3 4 -12 1 -19z m1246 -23 c4 -8 3 -16 -1 -19 -4 -3 -9 4 -9 15 -2
23 3 25 10 4z m-393 -270 c0 -8 -4 -15 -10 -15 -5 0 -10 7 -10 15 0 8 5 15 10
15 6 0 10 -7 10 -15z m-1590 -81 c0 -8 -4 -12 -10 -9 -5 3 -10 13 -10 21 0 8
5 12 10 9 6 -3 10 -13 10 -21z m-73 -86 c-3 -8 -6 -5 -6 6 -1 11 2 17 5 13 3
-3 4 -12 1 -19z m1644 -110 c10 -13 18 -33 19 -45 0 -26 -32 -63 -55 -63 -35
0 -49 92 -17 116 24 18 31 17 53 -8z m-1666 -168 c0 -8 -8 -16 -17 -18 -13 -2
-18 3 -18 18 0 15 5 20 18 18 9 -2 17 -10 17 -18z m59 12 c2 -4 1 -14 -4 -22
-7 -11 -12 -12 -21 -3 -6 6 -8 16 -5 22 8 13 23 14 30 3z m1946 -52 c0 -5 -2
-10 -4 -10 -3 0 -8 5 -11 10 -3 6 -1 10 4 10 6 0 11 -4 11 -10z m-870 -35 c0
-8 -4 -15 -9 -15 -13 0 -22 16 -14 24 11 11 23 6 23 -9z m-220 -252 c0 -5 13
-17 29 -27 35 -24 56 -81 48 -132 -7 -41 -32 -74 -57 -74 -9 0 -21 -5 -27 -11
-13 -13 -70 24 -79 53 -3 10 -10 18 -16 18 -14 0 -3 82 17 120 8 16 27 33 40
36 14 3 25 10 25 15 0 5 5 9 10 9 6 0 10 -3 10 -7z m590 -114 c0 -20 -24 -26
-35 -9 -8 13 14 42 26 34 5 -3 9 -14 9 -25z m-530 -323 c0 -23 -22 -41 -34
-29 -3 4 -6 17 -6 30 0 16 6 23 20 23 14 0 20 -7 20 -24z m-910 -246 c0 -5 -4
-10 -10 -10 -5 0 -10 5 -10 10 0 6 5 10 10 10 6 0 10 -4 10 -10z m1424 -312
c18 -162 99 -418 188 -591 16 -33 27 -61 25 -63 -2 -3 -13 14 -25 38 l-20 43
0 -44 c-1 -29 6 -53 18 -68 17 -22 19 -23 29 -6 9 16 12 16 20 3 6 -8 15 -22
21 -30 84 -119 116 -163 178 -244 40 -52 91 -114 112 -138 22 -23 40 -49 40
-55 0 -7 4 -13 9 -13 5 0 19 -13 31 -30 18 -25 19 -29 4 -23 -12 4 -15 3 -10
-6 5 -8 2 -11 -9 -9 -14 2 -21 -11 -35 -62 -10 -36 -17 -76 -16 -90 0 -15 -4
-25 -13 -25 -17 0 -24 -54 -9 -72 6 -7 18 -13 28 -13 20 0 30 -19 30 -58 0
-15 4 -22 8 -17 4 6 22 11 41 12 18 1 38 8 45 16 6 7 37 21 70 32 32 11 54 21
47 23 -6 2 -11 8 -11 13 0 4 7 6 16 2 13 -5 15 -2 9 18 -5 17 10 5 50 -38 81
-89 247 -313 244 -329 0 -4 6 -11 14 -16 20 -11 20 -82 1 -123 -8 -16 -22 -61
-32 -100 -21 -82 -37 -115 -57 -115 -7 0 -23 -17 -35 -38 -21 -37 -77 -82
-103 -82 -7 0 -18 -5 -24 -11 -5 -5 -41 -14 -78 -20 -38 -5 -82 -16 -98 -24
-17 -8 -45 -15 -62 -15 -30 0 -33 -3 -39 -41 -4 -23 -4 -44 -1 -47 3 -3 5 4 5
15 0 13 6 20 16 19 9 0 18 7 20 17 4 29 13 32 28 12 7 -10 17 -15 23 -12 5 3
10 -13 12 -39 1 -35 -1 -44 -14 -44 -9 0 -13 -4 -10 -10 3 -5 -3 -10 -15 -10
-11 0 -23 7 -26 15 -4 9 -19 15 -39 15 -19 0 -37 5 -41 11 -4 8 -9 7 -15 -2
-6 -11 -11 -11 -21 -1 -18 18 -28 15 -28 -8 0 -11 5 -20 10 -20 6 0 10 -4 10
-10 0 -11 -25 2 -219 118 -154 92 -205 135 -215 182 -3 17 4 74 16 128 31 147
30 349 -6 557 -14 88 -31 164 -35 168 -5 5 -21 -8 -36 -32 -15 -22 -29 -41
-31 -41 -2 0 -32 23 -66 51 -62 49 -199 144 -219 151 -6 2 -7 11 -3 21 4 11
13 16 22 12 13 -5 13 -3 -1 13 -15 16 -16 34 -12 128 3 60 7 132 8 160 1 31 9
59 18 70 13 15 16 31 12 72 -3 28 -9 52 -14 52 -5 0 -9 19 -9 41 0 36 2 40 15
29 9 -7 19 -10 22 -6 4 4 3 10 -3 14 -6 4 -14 24 -18 45 -6 30 -4 37 9 37 8 0
20 -12 25 -26 6 -14 14 -22 20 -19 12 7 14 45 3 45 -15 0 -15 254 0 301 8 24
17 58 21 76 6 34 61 114 100 144 13 10 27 30 30 44 4 14 11 23 16 20 6 -3 10
1 10 10 0 9 4 14 9 11 4 -3 11 -34 15 -68z m-2266 -235 c6 -11 6 -25 -1 -40
-10 -22 -11 -22 -29 -7 -18 17 -24 45 -11 57 12 12 32 7 41 -10z m1925 -34 c6
-24 -17 -54 -33 -44 -11 7 -14 48 -3 58 13 14 31 7 36 -14z m-1610 -211 c14
-22 0 -68 -21 -68 -40 0 -58 59 -24 79 21 13 32 10 45 -11z m5256 -17 c13 -24
-9 -57 -33 -48 -16 6 -22 47 -9 60 12 13 32 7 42 -12z m-4722 -185 c43 -34
105 -96 96 -96 -2 0 3 -7 11 -16 32 -31 12 -184 -32 -253 -34 -54 -60 -73
-106 -82 -73 -14 -133 28 -190 132 -33 60 -34 62 -37 128 -3 56 16 95 71 149
31 30 52 42 86 47 24 3 44 10 44 16 0 16 14 10 57 -25z m-428 -92 c25 -32 26
-52 5 -82 -21 -30 -58 -28 -79 4 -18 29 -14 63 11 88 22 23 40 20 63 -10z
m-703 -689 c7 -29 1 -41 -15 -30 -14 8 -14 55 -1 55 5 0 12 -11 16 -25z m3824
-165 c0 -13 -1 -13 -10 0 -5 8 -10 22 -10 30 0 13 1 13 10 0 5 -8 10 -22 10
-30z m-3810 -2 c0 -6 -6 -5 -15 2 -8 7 -15 14 -15 16 0 2 7 1 15 -2 8 -4 15
-11 15 -16z m558 -97 c5 -34 -16 -51 -33 -27 -10 14 -11 24 -4 38 13 24 33 18
37 -11z m79 -185 c-9 -22 -47 -21 -47 2 0 10 5 23 12 30 16 16 43 -10 35 -32z
m3073 14 c0 -5 -2 -10 -4 -10 -3 0 -8 5 -11 10 -3 6 -1 10 4 10 6 0 11 -4 11
-10z m928 -168 c2 -13 -3 -25 -13 -28 -23 -9 -38 10 -30 36 9 27 39 22 43 -8z
m-3190 -84 c7 -7 12 -27 12 -45 0 -37 -23 -55 -56 -43 -30 12 -36 45 -12 75
21 28 38 31 56 13z m-114 -62 l26 -23 -37 -33 c-20 -19 -34 -26 -30 -17 3 9 2
17 -3 17 -14 0 -12 54 2 68 15 15 13 16 42 -12z m-178 -152 c-5 -13 -10 -14
-18 -6 -6 6 -8 18 -4 28 5 13 10 14 18 6 6 -6 8 -18 4 -28z m701 -177 c13 -22
17 -40 12 -53 -4 -12 -3 -27 2 -35 7 -12 9 -12 10 1 1 8 1 21 0 29 -2 7 3 10
9 6 6 -4 9 -12 7 -18 -2 -7 2 -16 9 -22 10 -8 10 -13 -2 -23 -11 -10 -14 -10
-14 0 0 9 -3 9 -10 -2 -5 -9 -5 -19 2 -27 7 -9 7 -13 -1 -13 -6 0 -11 -6 -11
-13 0 -8 -6 -14 -12 -15 -51 -6 -78 -16 -78 -29 0 -8 -4 -11 -10 -8 -5 3 -10
15 -10 26 0 12 -7 19 -20 19 -12 0 -26 12 -35 30 -15 30 -15 31 25 72 22 23
43 39 46 35 4 -4 13 2 21 12 8 12 20 17 33 14 23 -6 26 3 6 23 -11 10 -15 11
-19 1 -2 -6 -8 -9 -12 -5 -4 4 -4 11 0 17 12 20 33 11 52 -22z m83 -147 c0 -3
-9 -6 -20 -7 -23 -2 -26 7 -8 25 9 9 14 9 20 -1 4 -6 8 -14 8 -17z"/>
<path d="M1475 6930 c-3 -5 -1 -10 4 -10 6 0 11 5 11 10 0 6 -2 10 -4 10 -3 0
-8 -4 -11 -10z"/>
<path d="M745 2020 c3 -5 8 -10 11 -10 2 0 4 5 4 10 0 6 -5 10 -11 10 -5 0 -7
-4 -4 -10z"/>
<path d="M758 1993 c7 -3 16 -2 19 1 4 3 -2 6 -13 5 -11 0 -14 -3 -6 -6z"/>
<path d="M5640 6629 c0 -5 5 -7 10 -4 6 3 10 8 10 11 0 2 -4 4 -10 4 -5 0 -10
-5 -10 -11z"/>
<path d="M5116 5860 c-57 -18 -96 -76 -96 -144 0 -31 -3 -34 -35 -40 -26 -5
-35 -12 -35 -26 0 -16 7 -20 35 -20 l35 0 0 -175 0 -175 35 0 35 0 0 175 0
175 50 0 c47 0 50 2 50 25 0 23 -3 25 -50 25 l-50 0 0 39 c0 57 31 91 81 91
38 0 40 2 37 28 -2 22 -8 27 -33 29 -16 1 -43 -2 -59 -7z"/>
<path d="M4285 5830 c-3 -5 -2 -10 4 -10 5 0 13 5 16 10 3 6 2 10 -4 10 -5 0
-13 -4 -16 -10z"/>
<path d="M5307 5763 c-3 -5 -8 -23 -12 -41 -5 -25 -14 -36 -36 -44 -37 -13
-41 -48 -5 -48 l24 0 4 -148 c2 -118 6 -153 20 -174 23 -34 70 -42 136 -23 47
14 52 18 46 38 -9 29 -8 29 -38 17 -42 -16 -74 -12 -86 9 -5 11 -10 78 -10
150 l0 131 60 0 c57 0 60 1 60 25 0 24 -3 25 -60 25 l-60 0 0 45 c0 38 -3 45
-19 45 -11 0 -22 -3 -24 -7z"/>
<path d="M4700 5681 c-14 -4 -40 -16 -58 -25 -31 -16 -32 -16 -32 4 0 16 -7
20 -30 20 l-30 0 0 -200 0 -200 35 0 34 0 3 153 3 152 45 23 c50 25 96 23 118
-5 8 -12 12 -63 12 -170 l0 -153 36 0 35 0 -3 175 c-3 173 -3 175 -29 201 -29
28 -93 40 -139 25z"/>
<path d="M5847 5679 c-59 -14 -79 -28 -75 -52 3 -24 7 -24 88 -6 46 10 61 10
85 -2 25 -12 30 -21 33 -57 l3 -42 -44 0 c-62 0 -133 -27 -162 -62 -32 -38
-34 -103 -5 -141 38 -48 138 -59 198 -21 19 13 22 13 22 -1 0 -10 10 -15 30
-15 l30 0 0 163 c0 109 -4 170 -13 187 -25 51 -101 70 -190 49z m133 -267 c0
-53 -2 -60 -25 -70 -34 -16 -97 -15 -118 1 -23 18 -30 59 -14 82 18 24 70 43
120 44 l37 1 0 -58z"/>
<path d="M6275 5670 c-34 -17 -40 -18 -48 -5 -4 8 -21 15 -37 15 l-30 0 0
-200 0 -200 35 0 35 0 0 150 0 150 33 20 c22 14 46 20 77 18 l45 -2 0 34 c0
33 -2 35 -35 38 -21 2 -51 -6 -75 -18z"/>
<path d="M6442 5410 c0 -14 2 -19 5 -12 2 6 2 18 0 25 -3 6 -5 1 -5 -13z"/>
<path d="M5571 5344 c-10 -22 -9 -31 4 -50 29 -45 79 -20 73 36 -3 31 -7 35
-34 38 -25 2 -33 -2 -43 -24z"/>
<path d="M6496 5225 c-11 -8 -17 -15 -14 -15 4 0 15 -3 25 -6 15 -5 15 -4 3 5
-12 9 -11 11 8 11 13 0 20 4 17 10 -8 13 -16 12 -39 -5z"/>
<path d="M6751 5024 c0 -11 3 -14 6 -6 3 7 2 16 -1 19 -3 4 -6 -2 -5 -13z"/>
<path d="M5695 3210 c-3 -5 -13 -7 -23 -4 -13 5 -14 4 -3 -4 15 -11 51 -4 51
9 0 12 -17 11 -25 -1z"/>
<path d="M4199 5713 c-13 -15 -12 -15 9 -4 23 12 28 21 13 21 -5 0 -15 -7 -22
-17z"/>
<path d="M3611 2674 c0 -11 3 -14 6 -6 3 7 2 16 -1 19 -3 4 -6 -2 -5 -13z"/>
<path d="M3138 2193 c7 -3 16 -2 19 1 4 3 -2 6 -13 5 -11 0 -14 -3 -6 -6z"/>
<path d="M4490 1546 c0 -2 7 -7 16 -10 8 -3 12 -2 9 4 -6 10 -25 14 -25 6z"/>
<path d="M3855 1370 c-3 -5 1 -10 9 -10 9 0 16 5 16 10 0 6 -4 10 -9 10 -6 0
-13 -4 -16 -10z"/>
</g>
</svg>
